<?xml version="1.0" encoding="UTF-8" standalone="no"?>
<!-- Created with Inkscape (http://www.inkscape.org/) -->

<svg
   width="174.64424"
   height="125.09299"
   viewBox="0 0 174.64424 125.09299"
   version="1.1"
   id="svg1"
   xml:space="preserve"
   sodipodi:docname="icon.svg"
   xmlns:inkscape="http://www.inkscape.org/namespaces/inkscape"
   xmlns:sodipodi="http://sodipodi.sourceforge.net/DTD/sodipodi-0.dtd"
   xmlns="http://www.w3.org/2000/svg"
   xmlns:svg="http://www.w3.org/2000/svg"><sodipodi:namedview
     id="namedview1"
     pagecolor="#ffffff"
     bordercolor="#000000"
     borderopacity="0.25"
     inkscape:showpageshadow="2"
     inkscape:pageopacity="0.0"
     inkscape:pagecheckerboard="0"
     inkscape:deskcolor="#d1d1d1"><inkscape:page
       x="0"
       y="0"
       width="174.64424"
       height="125.09299"
       id="page2"
       margin="0"
       bleed="0" /></sodipodi:namedview><defs
     id="defs1"><filter
       style="color-interpolation-filters:sRGB"
       id="filter59"
       x="-0.0025309769"
       y="-0.0036824006"
       width="1.005062"
       height="1.0073648"><feGaussianBlur
         stdDeviation="0.071199995"
         id="feGaussianBlur59" /></filter><filter
       style="color-interpolation-filters:sRGB"
       id="filter60"
       x="-0.0025311897"
       y="-0.0036819623"
       width="1.0050624"
       height="1.0073639"><feGaussianBlur
         stdDeviation="0.071195037"
         id="feGaussianBlur60" /></filter><filter
       style="color-interpolation-filters:sRGB"
       id="filter61"
       x="-0.0016991875"
       y="-0.012795889"
       width="1.0033984"
       height="1.0255918"><feGaussianBlur
         stdDeviation="0.050889891"
         id="feGaussianBlur61" /></filter></defs><g
     id="layer1"
     transform="translate(-3.3557589,-27.300429)"><g
       id="g1209"
       transform="matrix(2.4072016,0,0,2.4072016,365.46715,-495.89554)"
       inkscape:export-filename="g1209.svg"
       inkscape:export-xdpi="96"
       inkscape:export-ydpi="96"><circle
         style="fill:#1e1e1e;fill-opacity:1;stroke:#ffffff;stroke-width:0;paint-order:markers stroke fill"
         id="path15"
         cx="-113.94208"
         cy="243.0325"
         r="25.686363" /><path
         id="circle15"
         style="fill:#00eeff;fill-opacity:1;stroke:#ffffff;stroke-width:0;paint-order:markers stroke fill;filter:url(#filter59)"
         d="m -146.21875,222.3418 a 40.112041,8.3498243 33.499329 0 0 -2.97656,0.37695 40.112041,8.3498243 33.499329 0 0 9.9414,15.97266 c 0.0282,-0.16626 0.0479,-0.29891 0.0937,-0.53907 0.0376,-0.19686 0.0997,-0.46466 0.15235,-0.73437 0.0686,-0.26922 0.12736,-0.55168 0.20117,-0.82813 0.0288,-0.10787 0.0616,-0.21919 0.0918,-0.32812 a 32.264032,6.7161621 33.499329 0 1 -4.08399,-9.08399 32.264032,6.7161621 33.499329 0 1 24.71289,9.41211 c 0.008,-0.005 0.0153,-0.0103 0.0234,-0.0156 l -0.0215,0.0176 a 32.264032,6.7161621 33.499329 0 1 1.60156,0.96484 c 10e-4,-9.1e-4 0.003,-9.5e-4 0.004,-0.002 0.0515,0.0352 0.0857,0.057 0.13672,0.0918 a 32.264032,6.7161621 33.499329 0 1 6.64258,4.375 32.264032,6.7161621 33.499329 0 1 1.375,0.97266 c 1.41054,0.96637 2.74784,1.93753 4.24414,3.14844 0.0106,0.009 0.0226,0.0187 0.0332,0.0273 a 32.264032,6.7161621 33.499329 0 1 11.628911,10.63086 32.264032,6.7161621 33.499329 0 1 2.203125,7.05274 32.264032,6.7161621 33.499329 0 1 -7.523437,-0.92579 c -0.336147,0.28728 -0.673875,0.56523 -1.015625,0.82032 -0.35311,0.26357 -0.706997,0.50655 -1.060547,0.74218 a 40.112041,8.3498243 33.499329 0 0 15.994141,3.82422 40.112041,8.3498243 33.499329 0 0 -24.224608,-27.14257 40.112041,8.3498243 33.499329 0 0 -38.17383,-18.83008 z" /><path
         id="path16"
         style="fill:#e5ff00;fill-opacity:1;stroke:#ffffff;stroke-width:0;paint-order:markers stroke fill;filter:url(#filter60)"
         d="m -82.089844,222.76758 a 8.3498243,40.112041 56.500671 0 0 -32.251956,14.8789 c -2.61977,1.71611 -5.64826,3.78718 -10.97461,7.6211 a 8.3498243,40.112041 56.500671 0 0 -19.17382,23.47265 8.3498243,40.112041 56.500671 0 0 16.63867,-4.11523 c -0.35962,-0.23337 -0.72317,-0.47489 -1.11133,-0.75586 -0.28571,-0.21811 -0.5816,-0.42232 -0.8457,-0.63672 -0.04,-0.0325 -0.0757,-0.0652 -0.11524,-0.0976 a 6.7161621,32.264032 56.500671 0 1 -8.16992,1.14453 6.7161621,32.264032 56.500671 0 1 5.62109,-10.64649 c -0.002,-0.005 -0.004,-0.0103 -0.006,-0.0156 0.17495,-0.16148 0.30279,-0.27187 0.47071,-0.42578 a 6.7161621,32.264032 56.500671 0 1 7.41797,-6.33008 c 0.18851,-0.14921 0.37242,-0.29764 0.56445,-0.44922 0.46518,-0.3672 1.00063,-0.76479 1.56445,-1.17578 a 6.7161621,32.264032 56.500671 0 1 3.85156,-2.78906 6.7161621,32.264032 56.500671 0 1 8.93165,-5.76368 l -0.14258,-0.10937 c 0.0535,0.0347 0.10018,0.0707 0.15039,0.10547 a 6.7161621,32.264032 56.500671 0 1 24.160154,-9.07617 6.7161621,32.264032 56.500671 0 1 -3.660156,8.65625 c 0.03039,0.10971 0.06475,0.22144 0.09375,0.33007 0.0738,0.27645 0.130579,0.55891 0.199219,0.82813 0.05261,0.26971 0.116737,0.53751 0.154297,0.73437 0.0495,0.25942 0.07215,0.40664 0.101562,0.58204 a 8.3498243,40.112041 56.500671 0 0 9.50586,-15.58985 8.3498243,40.112041 56.500671 0 0 -2.97461,-0.37695 z" /><path
         id="circle20"
         style="mix-blend-mode:normal;fill:#ff0061;fill-opacity:1;stroke:#ffffff;stroke-width:0;paint-order:markers stroke fill;filter:url(#filter61)"
         d="m -139.19141,238.35352 a 35.939411,5.549251 0 0 0 -11.08984,3.99609 35.939411,5.549251 0 0 0 35.93945,5.54883 35.939411,5.549251 0 0 0 35.939456,-5.54883 35.939411,5.549251 0 0 0 -10.261718,-3.88086 c 0.08464,0.43891 0.156999,0.91704 0.214843,1.41602 a 30.459333,4.7030955 0 0 1 4.566407,2.46484 30.459333,4.7030955 0 0 1 -30.458988,4.70312 30.459333,4.7030955 0 0 1 -19.98242,-1.16601 c -0.0449,-0.006 -0.0899,-0.0132 -0.13476,-0.0195 a 30.459333,4.7030955 0 0 1 -10.3418,-3.51758 30.459333,4.7030955 0 0 1 5.41016,-2.6582 c 0.0648,-0.45019 0.13148,-0.89622 0.19921,-1.33789 z" /></g></g></svg>
